# xmcd
#
# Track frame offsets:
#	150
#	15455
#	26495
#	41865
#	52012
#	62875
#	73335
#	82212
#	93702
#	101022
#	110085
#	116952
#	125472
#	132800
#	143337
#	155360
#	164017
#	177097
#	187295
#	198630
#	207865
#	219727
#	232147
#	243527
#	256615
#	259482
#	270127
#	284022
#	301225
#	312327
#
# Disc length: 4322 seconds
#
# Revision: 3
# Processed by: cddbd v1.5.2PL0 Copyright (c) Steve Scherf et al.
# Submitted via: EasyCDDAExtractor 8.2.3.1
#
DISCID=d710e01e
DTITLE=Various Artist - Classic Recordings [Disc4]
DYEAR=196
DGENRE=Country
TTITLE0=Marvin Rainwater - Heart's Hill Of Fame
TTITLE1=Marvin Rainwater - Hit And Run Lover
TTITLE2=Marvin Rainwater - Korea's Mountain Northland
TTITLE3=Marvin Rainwater - Tainted Gold 1960
TTITLE4=Marvin Rainwater - Don't Tell My Boy (In Prison Living A Lie)
TTITLE5=Marvin Rainwater - Don't Try To Change Your Little Woman
TTITLE6=Marvin Rainwater - Do You Want To Know
TTITLE7=Marvin Rainwater - Engineer's Song (The Boy And The Engineer)
TTITLE8=Marvin Rainwater - Freight Train Blues
TTITLE9=Marvin Rainwater - The Key
TTITLE10=Marvin Rainwater - Let's Go On A Picnic
TTITLE11=Marvin Rainwater - Moments Of Love
TTITLE12=Marvin Rainwater - So Long
TTITLE13=Marvin Rainwater - Teardrops
TTITLE14=Marvin Rainwater - The Wanderer In Me
TTITLE15=Marvin Rainwater - What You Got  You Don't Want
TTITLE16=Marvin Rainwater - Would Your Mother Be Proud Of You
TTITLE17=Marvin Rainwater - You Can't Keep A Secret
TTITLE18=Marvin Rainwater - Love Me Baby (Like There's No Tomorrow) (Takes 23-
TTITLE18=24 Solo Vocal)
TTITLE19=Marvin Rainwater - (There's A) Honky Tonk In Your Heart (Alt)
TTITLE20=Marvin Rainwater - My Old Home Town (Alt)
TTITLE21=Marvin Rainwater - The Old Gang's Gone (& Bill Guess) (Alt)
TTITLE22=Marvin Rainwater - Cold Woman (Slow Version  Alt)
TTITLE23=Marvin Rainwater and Patty Rainwater - Wedding Rings
TTITLE24=Marvin Rainwater - Live_ Introduction
TTITLE25=Marvin Rainwater - So You Think You've Got Troubles
TTITLE26=Marvin Rainwater - Halfbreed
TTITLE27=Marvin Rainwater - Whole Lotta Woman
TTITLE28=Marvin Rainwater and Patty Rainwater - I'll Always Be Lonely
TTITLE29=Marvin Rainwater and Patty Rainwater - Wishful Thinking
EXTD=
EXTT0=
EXTT1=
EXTT2=
EXTT3=
EXTT4=
EXTT5=
EXTT6=
EXTT7=
EXTT8=
EXTT9=
EXTT10=
EXTT11=
EXTT12=
EXTT13=
EXTT14=
EXTT15=
EXTT16=
EXTT17=
EXTT18=
EXTT19=
EXTT20=
EXTT21=
EXTT22=
EXTT23=
EXTT24=
EXTT25=
EXTT26=
EXTT27=
EXTT28=
EXTT29=
PLAYORDER=
